<svg width="428.96002197265625px" height="120.8px" xmlns="http://www.w3.org/2000/svg" viewBox="35.519989013671875 14.600000000000001 428.96002197265625 120.8" style="background:#596886" preserveAspectRatio="xMidYMid"><defs><filter id="editing-hover" x="-100%" y="-100%" width="300%" height="300%"><feFlood flood-color="#052b4a" result="flood"></feFlood><feComposite operator="in" in2="SourceAlpha" in="flood" result="shadow"></feComposite><feOffset dx="-4" dy="-4" in="SourceGraphic" result="offset-1"></feOffset><feOffset dx="4" dy="4" in="shadow" result="offset-2"></feOffset><feMerge><feMergeNode in="offset-2"></feMergeNode><feMergeNode in="offset-1"></feMergeNode></feMerge></filter></defs><g filter="url(#editing-hover)"><g transform="translate(100.46503114700317, 98.68000030517578)"><path d="M3.87-1.92L3.87-1.92L3.87-1.92Q2.37-3.58 1.70-6.21L1.70-6.21L1.70-6.21Q1.02-8.83 1.02-13.12L1.02-13.12L1.02-13.12Q1.02-17.41 2.50-21.31L2.50-21.31L2.50-21.31Q3.97-25.22 6.66-28.03L6.66-28.03L6.66-28.03Q12.16-33.92 21.25-33.92L21.25-33.92L21.25-33.92Q24.51-33.92 26.88-32.83L26.88-32.83L37.82-33.92L33.09-8.96L33.09-8.96Q32.90-8.19 32.90-6.78L32.90-6.78L32.90-6.78Q32.90-5.38 33.76-4.48L33.76-4.48L33.76-4.48Q34.62-3.58 35.90-3.46L35.90-3.46L35.90-3.46Q35.26-1.28 32.93 0L32.93 0L32.93 0Q30.59 1.28 27.97 1.28L27.97 1.28L27.97 1.28Q25.34 1.28 23.58 0.29L23.58 0.29L23.58 0.29Q21.82-0.70 21.31-2.37L21.31-2.37L21.31-2.37Q20.29-0.77 18.11 0.26L18.11 0.26L18.11 0.26Q15.94 1.28 13.02 1.28L13.02 1.28L13.02 1.28Q10.11 1.28 7.74 0.51L7.74 0.51L7.74 0.51Q5.38-0.26 3.87-1.92ZM17.38-27.90L17.38-27.90L17.38-27.90Q16.64-26.75 16-24.80L16-24.80L16-24.80Q15.36-22.85 14.30-17.63L14.30-17.63L14.30-17.63Q13.25-12.42 13.25-8.70L13.25-8.70L13.25-8.70Q13.25-4.99 13.82-3.90L13.82-3.90L13.82-3.90Q14.40-2.82 15.42-2.82L15.42-2.82L15.42-2.82Q17.47-2.82 18.98-4.77L18.98-4.77L18.98-4.77Q20.48-6.72 21.06-10.18L21.06-10.18L24.45-28.93L24.45-28.93Q23.10-30.08 21.54-30.08L21.54-30.08L21.54-30.08Q19.97-30.08 19.04-29.57L19.04-29.57L19.04-29.57Q18.11-29.06 17.38-27.90ZM40.45-3.07L40.45-3.07L48.38-44.80L61.38-46.08L59.39-36.29L59.39-36.29Q58.69-33.28 57.79-31.17L57.79-31.17L57.79-31.17Q59.20-32.96 62.27-33.66L62.27-33.66L62.27-33.66Q63.17-33.92 64.26-33.92L64.26-33.92L64.26-33.92Q70.21-33.92 73.47-30.30L73.47-30.30L73.47-30.30Q76.74-26.69 76.74-19.71L76.74-19.71L76.74-19.71Q76.74-10.62 71.55-4.93L71.55-4.93L71.55-4.93Q65.98 1.28 55.87 1.28L55.87 1.28L55.87 1.28Q48.90 1.28 43.65-1.02L43.65-1.02L43.65-1.02Q41.79-1.86 40.45-3.07ZM56.70-22.40L53.31-3.65L53.31-3.65Q54.66-2.50 56.32-2.50L56.32-2.50L56.32-2.50Q57.98-2.50 58.94-3.14L58.94-3.14L58.94-3.14Q59.90-3.78 60.61-5.06L60.61-5.06L60.61-5.06Q62.53-8.51 64.06-19.07L64.06-19.07L64.06-19.07Q64.51-22.08 64.51-25.09L64.51-25.09L64.51-25.09Q64.51-28.10 63.84-29.06L63.84-29.06L63.84-29.06Q63.17-30.02 61.89-30.02L61.89-30.02L61.89-30.02Q57.98-30.02 56.70-22.40L56.70-22.40ZM94.53 1.28L94.53 1.28L94.53 1.28Q80.45 1.28 80.45-11.97L80.45-11.97L80.45-11.97Q80.45-21.38 85.63-27.46L85.63-27.46L85.63-27.46Q91.14-33.92 100.67-33.92L100.67-33.92L100.67-33.92Q107.58-33.92 111.10-30.72L111.10-30.72L111.10-30.72Q114.62-27.52 114.62-20.80L114.62-20.80L114.62-20.80Q114.62-10.56 109.12-4.61L109.12-4.61L109.12-4.61Q103.74 1.28 94.53 1.28ZM96.19-26.56L96.19-26.56L96.19-26.56Q95.42-24.83 94.82-22.24L94.82-22.24L94.82-22.24Q94.21-19.65 93.44-15.55L93.44-15.55L93.44-15.55Q92.67-11.46 92.67-6.40L92.67-6.40L92.67-6.40Q92.67-4.74 93.22-3.65L93.22-3.65L93.22-3.65Q93.76-2.56 95.23-2.56L95.23-2.56L95.23-2.56Q96.70-2.56 97.63-3.26L97.63-3.26L97.63-3.26Q98.56-3.97 99.26-5.63L99.26-5.63L99.26-5.63Q100.54-8.58 101.57-14.05L101.57-14.05L101.57-14.05Q102.59-19.52 102.69-21.89L102.69-21.89L102.69-21.89Q102.78-24.26 102.78-26.02L102.78-26.02L102.78-26.02Q102.78-27.78 102.27-28.93L102.27-28.93L102.27-28.93Q101.76-30.08 100.32-30.08L100.32-30.08L100.32-30.08Q98.88-30.08 97.92-29.18L97.92-29.18L97.92-29.18Q96.96-28.29 96.19-26.56ZM138.94-2.69L138.94-2.69L138.94-2.69Q135.87 1.28 128.26 1.28L128.26 1.28L128.26 1.28Q124.29 1.28 121.41-1.12L121.41-1.12L121.41-1.12Q118.53-3.52 118.53-6.98L118.53-6.98L118.53-6.98Q118.53-8.90 118.72-9.86L118.72-9.86L123.01-32.64L136-33.92L131.33-9.22L131.33-9.22Q131.07-7.81 131.07-6.98L131.07-6.98L131.07-6.98Q131.07-3.26 133.31-3.26L133.31-3.26L133.31-3.26Q135.81-3.26 137.60-6.66L137.60-6.66L137.60-6.66Q138.18-7.74 138.43-9.15L138.43-9.15L142.98-32.64L155.58-33.92L150.85-8.96L150.85-8.96Q150.66-8 150.66-6.98L150.66-6.98L150.66-6.98Q150.66-5.95 151.23-4.83L151.23-4.83L151.23-4.83Q151.81-3.71 153.66-3.46L153.66-3.46L153.66-3.46Q153.28-1.92 151.94-0.90L151.94-0.90L151.94-0.90Q149.12 1.28 146.08 1.28L146.08 1.28L146.08 1.28Q143.04 1.28 141.25 0.19L141.25 0.19L141.25 0.19Q139.46-0.90 138.94-2.69ZM160.06-6.40L160.06-6.40L160.06-6.40Q160.06-8.13 160.96-12.48L160.96-12.48L164.35-29.76L160.58-29.76L160.83-31.68L160.83-31.68Q168.51-33.98 175.94-39.62L175.94-39.62L179.01-39.62L177.47-32.64L182.46-32.64L181.89-29.76L176.96-29.76L173.70-12.48L173.70-12.48Q172.86-8.51 172.86-7.17L172.86-7.17L172.86-7.17Q172.86-4.10 175.55-3.46L175.55-3.46L175.55-3.46Q174.91-1.28 172.61 0L172.61 0L172.61 0Q170.30 1.28 167.04 1.28L167.04 1.28L167.04 1.28Q163.78 1.28 161.92-0.77L161.92-0.77L161.92-0.77Q160.06-2.82 160.06-6.40ZM184.51-10.37L184.51-10.37L184.51-10.37Q182.46-11.84 182.46-14.66L182.46-14.66L182.46-14.66Q182.46-16.19 183.23-17.44L183.23-17.44L183.23-17.44Q184.00-18.69 185.54-18.88L185.54-18.88L198.14-18.88L198.14-18.88Q200.26-18.88 200.90-20.16L200.90-20.16L200.90-20.16Q201.92-19.58 202.37-18.37L202.37-18.37L202.37-18.37Q202.82-17.15 202.82-15.87L202.82-15.87L202.82-15.87Q202.82-14.59 201.82-13.34L201.82-13.34L201.82-13.34Q200.83-12.10 199.36-11.97L199.36-11.97L187.65-11.97L187.65-11.97Q186.30-11.97 185.66-11.55L185.66-11.55L185.66-11.55Q185.02-11.14 184.51-10.37ZM253.31 1.28L253.31 1.28L253.31 1.28Q245.57 1.28 245.57-4.74L245.57-4.74L245.57-4.74Q245.57-7.36 246.69-12.45L246.69-12.45L246.69-12.45Q247.81-17.54 248.19-19.58L248.19-19.58L248.19-19.58Q249.09-24.26 249.09-25.73L249.09-25.73L249.09-25.73Q249.09-28.99 246.66-28.99L246.66-28.99L246.66-28.99Q245.06-28.99 243.52-26.78L243.52-26.78L243.52-26.78Q241.98-24.58 241.28-20.16L241.28-20.16L237.31 0L224.83 1.28L228.29-16.13L228.29-16.13Q228.86-19.01 229.38-22.27L229.38-22.27L229.38-22.27Q229.89-25.54 229.89-26.05L229.89-26.05L229.89-26.05Q229.89-28.99 227.71-28.99L227.71-28.99L227.71-28.99Q226.24-28.99 224.64-26.82L224.64-26.82L224.64-26.82Q223.04-24.64 222.14-20.16L222.14-20.16L218.24 0L205.63 1.28L212.35-32.64L222.78-33.92L221.70-27.46L221.70-27.46Q223.36-30.91 226.43-32.42L226.43-32.42L226.43-32.42Q229.50-33.92 234.30-33.92L234.30-33.92L234.30-33.92Q237.06-33.92 238.85-32.58L238.85-32.58L238.85-32.58Q240.64-31.23 241.22-29.06L241.22-29.06L241.22-29.06Q242.30-31.30 245.09-32.61L245.09-32.61L245.09-32.61Q247.87-33.92 251.30-33.92L251.30-33.92L251.30-33.92Q254.72-33.92 256.42-33.18L256.42-33.18L256.42-33.18Q258.11-32.45 259.14-31.23L259.14-31.23L259.14-31.23Q260.86-28.99 260.86-24.90L260.86-24.90L260.86-24.90Q260.86-20.86 259.14-12.48L259.14-12.48L259.14-12.48Q258.24-8.38 258.24-6.88L258.24-6.88L258.24-6.88Q258.24-5.38 259.10-4.48L259.10-4.48L259.10-4.48Q259.97-3.58 261.25-3.46L261.25-3.46L261.25-3.46Q260.61-1.28 258.40 0L258.40 0L258.40 0Q256.19 1.28 253.31 1.28ZM292.10-10.82L292.10-10.82L292.10-10.82Q293.70-9.73 293.70-7.33L293.70-7.33L293.70-7.33Q293.70-4.93 292.48-3.39L292.48-3.39L292.48-3.39Q291.26-1.86 289.28-0.83L289.28-0.83L289.28-0.83Q285.18 1.28 280.77 1.28L280.77 1.28L280.77 1.28Q276.35 1.28 273.76 0.32L273.76 0.32L273.76 0.32Q271.17-0.64 269.44-2.43L269.44-2.43L269.44-2.43Q266.05-5.82 266.05-12.03L266.05-12.03L266.05-12.03Q266.05-21.70 271.30-27.58L271.30-27.58L271.30-27.58Q276.93-33.92 286.72-33.92L286.72-33.92L286.72-33.92Q292.80-33.92 295.81-31.36L295.81-31.36L295.81-31.36Q298.05-29.44 298.05-26.30L298.05-26.30L298.05-26.30Q298.05-15.04 278.59-15.04L278.59-15.04L278.59-15.04Q278.34-13.38 278.34-11.97L278.34-11.97L278.34-11.97Q278.34-9.02 279.65-7.90L279.65-7.90L279.65-7.90Q280.96-6.78 283.39-6.78L283.39-6.78L283.39-6.78Q285.82-6.78 288.42-7.90L288.42-7.90L288.42-7.90Q291.01-9.02 292.10-10.82ZM279.04-17.79L279.04-17.79L279.04-17.79Q283.58-17.79 286.21-20.61L286.21-20.61L286.21-20.61Q288.83-23.30 288.83-27.58L288.83-27.58L288.83-27.58Q288.83-29.06 288.29-29.86L288.29-29.86L288.29-29.86Q287.74-30.66 286.66-30.66L286.66-30.66L286.66-30.66Q285.57-30.66 284.64-30.24L284.64-30.24L284.64-30.24Q283.71-29.82 282.75-28.42L282.75-28.42L282.75-28.42Q280.38-25.22 279.04-17.79Z" fill="#ffd5af"></path></g></g><style>text {
  font-size: 64px;
  font-family: Arial Black;
  dominant-baseline: central;
  text-anchor: middle;
}</style></svg>