<svg width="229.2800109863281px" height="120.8px" xmlns="http://www.w3.org/2000/svg" viewBox="135.35999450683596 14.600000000000001 229.2800109863281 120.8" style="background:#596886" preserveAspectRatio="xMidYMid"><defs><filter id="editing-hover" x="-100%" y="-100%" width="300%" height="300%"><feFlood flood-color="#052b4a" result="flood"></feFlood><feComposite operator="in" in2="SourceAlpha" in="flood" result="shadow"></feComposite><feOffset dx="-4" dy="-4" in="SourceGraphic" result="offset-1"></feOffset><feOffset dx="4" dy="4" in="shadow" result="offset-2"></feOffset><feMerge><feMergeNode in="offset-2"></feMergeNode><feMergeNode in="offset-1"></feMergeNode></feMerge></filter></defs><g filter="url(#editing-hover)"><g transform="translate(174.44708037376404, 98.68000030517578)"><path d="M33.28-7.10L33.28-7.10L33.28-7.10Q33.28-4.29 36.16-3.46L36.16-3.46L36.16-3.46Q35.46-1.09 32.70 0.19L32.70 0.19L32.70 0.19Q30.40 1.28 27.87 1.28L27.87 1.28L27.87 1.28Q25.34 1.28 24.03 0.61L24.03 0.61L24.03 0.61Q22.72-0.06 22.02-1.15L22.02-1.15L22.02-1.15Q20.86-2.82 20.86-5.95L20.86-5.95L20.86-5.95Q20.86-7.81 21.89-12.93L21.89-12.93L22.78-17.79L22.78-17.79Q23.87-23.36 23.87-25.41L23.87-25.41L23.87-25.41Q23.87-28.99 21.89-28.99L21.89-28.99L21.89-28.99Q19.39-28.99 17.79-25.34L17.79-25.34L17.79-25.34Q17.15-23.94 16.70-21.82L16.70-21.82L12.35 0L-0.51 1.28L8.51-44.80L21.38-46.08L20.86-43.52L20.86-43.52Q19.07-33.66 17.54-30.34L17.54-30.34L17.54-30.34Q21.12-33.92 27.71-33.92L27.71-33.92L27.71-33.92Q34.69-33.92 35.97-29.31L35.97-29.31L35.97-29.31Q36.42-27.84 36.42-26.56L36.42-26.56L36.42-26.56Q36.42-25.28 36.32-24.29L36.32-24.29L36.32-24.29Q36.22-23.30 35.90-21.50L35.90-21.50L35.07-16.90L33.60-9.66L33.60-9.66Q33.28-8.19 33.28-7.10ZM67.26-10.82L67.26-10.82L67.26-10.82Q68.86-9.73 68.86-7.33L68.86-7.33L68.86-7.33Q68.86-4.93 67.65-3.39L67.65-3.39L67.65-3.39Q66.43-1.86 64.45-0.83L64.45-0.83L64.45-0.83Q60.35 1.28 55.94 1.28L55.94 1.28L55.94 1.28Q51.52 1.28 48.93 0.32L48.93 0.32L48.93 0.32Q46.34-0.64 44.61-2.43L44.61-2.43L44.61-2.43Q41.22-5.82 41.22-12.03L41.22-12.03L41.22-12.03Q41.22-21.70 46.46-27.58L46.46-27.58L46.46-27.58Q52.10-33.92 61.89-33.92L61.89-33.92L61.89-33.92Q67.97-33.92 70.98-31.36L70.98-31.36L70.98-31.36Q73.22-29.44 73.22-26.30L73.22-26.30L73.22-26.30Q73.22-15.04 53.76-15.04L53.76-15.04L53.76-15.04Q53.50-13.38 53.50-11.97L53.50-11.97L53.50-11.97Q53.50-9.02 54.82-7.90L54.82-7.90L54.82-7.90Q56.13-6.78 58.56-6.78L58.56-6.78L58.56-6.78Q60.99-6.78 63.58-7.90L63.58-7.90L63.58-7.90Q66.18-9.02 67.26-10.82ZM54.21-17.79L54.21-17.79L54.21-17.79Q58.75-17.79 61.38-20.61L61.38-20.61L61.38-20.61Q64-23.30 64-27.58L64-27.58L64-27.58Q64-29.06 63.46-29.86L63.46-29.86L63.46-29.86Q62.91-30.66 61.82-30.66L61.82-30.66L61.82-30.66Q60.74-30.66 59.81-30.24L59.81-30.24L59.81-30.24Q58.88-29.82 57.92-28.42L57.92-28.42L57.92-28.42Q55.55-25.22 54.21-17.79ZM90.69-3.52L90.69-3.52L90.69-3.52Q88.70 1.28 82.37 1.28L82.37 1.28L82.37 1.28Q79.17 1.28 77.12-0.96L77.12-0.96L77.12-0.96Q75.46-2.82 75.46-4.93L75.46-4.93L75.46-4.93Q75.46-9.73 77.70-20.22L77.70-20.22L82.37-44.80L95.36-46.08L89.15-13.70L89.15-13.70Q88.06-8.96 88.06-7.30L88.06-7.30L88.06-7.30Q88.06-3.65 90.69-3.52ZM111.42-3.52L111.42-3.52L111.42-3.52Q109.44 1.28 103.10 1.28L103.10 1.28L103.10 1.28Q99.90 1.28 97.86-0.96L97.86-0.96L97.86-0.96Q96.19-2.82 96.19-4.93L96.19-4.93L96.19-4.93Q96.19-9.73 98.43-20.22L98.43-20.22L103.10-44.80L116.10-46.08L109.89-13.70L109.89-13.70Q108.80-8.96 108.80-7.30L108.80-7.30L108.80-7.30Q108.80-3.65 111.42-3.52ZM130.82 1.28L130.82 1.28L130.82 1.28Q116.74 1.28 116.74-11.97L116.74-11.97L116.74-11.97Q116.74-21.38 121.92-27.46L121.92-27.46L121.92-27.46Q127.42-33.92 136.96-33.92L136.96-33.92L136.96-33.92Q143.87-33.92 147.39-30.72L147.39-30.72L147.39-30.72Q150.91-27.52 150.91-20.80L150.91-20.80L150.91-20.80Q150.91-10.56 145.41-4.61L145.41-4.61L145.41-4.61Q140.03 1.28 130.82 1.28ZM132.48-26.56L132.48-26.56L132.48-26.56Q131.71-24.83 131.10-22.24L131.10-22.24L131.10-22.24Q130.50-19.65 129.73-15.55L129.73-15.55L129.73-15.55Q128.96-11.46 128.96-6.40L128.96-6.40L128.96-6.40Q128.96-4.74 129.50-3.65L129.50-3.65L129.50-3.65Q130.05-2.56 131.52-2.56L131.52-2.56L131.52-2.56Q132.99-2.56 133.92-3.26L133.92-3.26L133.92-3.26Q134.85-3.97 135.55-5.63L135.55-5.63L135.55-5.63Q136.83-8.58 137.86-14.05L137.86-14.05L137.86-14.05Q138.88-19.52 138.98-21.89L138.98-21.89L138.98-21.89Q139.07-24.26 139.07-26.02L139.07-26.02L139.07-26.02Q139.07-27.78 138.56-28.93L138.56-28.93L138.56-28.93Q138.05-30.08 136.61-30.08L136.61-30.08L136.61-30.08Q135.17-30.08 134.21-29.18L134.21-29.18L134.21-29.18Q133.25-28.29 132.48-26.56Z" fill="#ffd5af"></path></g></g><style>text {
  font-size: 64px;
  font-family: Arial Black;
  dominant-baseline: central;
  text-anchor: middle;
}</style></svg>