<svg width="378.0799926757812px" height="114.08000183105469px" xmlns="http://www.w3.org/2000/svg" viewBox="60.960003662109386 17.959999084472656 378.0799926757812 114.08000183105469" style="background: rgba(0, 0, 0, 0);" preserveAspectRatio="xMidYMid"><defs><filter id="editing-extrusion" x="-100%" y="-100%" width="300%" height="300%"><feFlood result="color1" flood-color="#444444"></feFlood><feConvolveMatrix order="4,4" divisor="1" kernelMatrix="1 0 0 0 0 1 0 0 0 0 1 0 0 0 0 1" in="SourceAlpha" result="extrude"></feConvolveMatrix><feComposite in="color1" in2="extrude" result="comp-extrude" operator="in"></feComposite><feOffset dx="2" dy="2" in="comp-extrude" result="offset-extrude"></feOffset><feMerge><feMergeNode in="offset-extrude"></feMergeNode><feMergeNode in="SourceGraphic"></feMergeNode></feMerge></filter></defs><g filter="url(#editing-extrusion)"><g transform="translate(127.46355438232422, 92.19000434875488)"><path d="M13.13-9.29L17.75-9.29L17.75-9.29Q19.96-9.29 20.15-10.60L20.15-10.60L22.55-24.64L18.33-24.64L20.09-34.38L35.23-34.38L30.81-9.17L30.81-9.17Q29.12 0 20.87 0L20.87 0L11.44 0L13.13-9.29ZM9.95-3.12L9.43-0.20L-18.14-3.12L9.95-3.12ZM19.05-15.67L18.53-12.74L-9.04-15.67L19.05-15.67ZM20.15-21.91L19.63-18.98L-7.93-21.91L20.15-21.91ZM16.90-28.14L16.38-25.22L-11.18-28.14L16.90-28.14ZM18.00-34.38L17.55-31.46L-10.01-34.38L18.00-34.38ZM11.12-9.43L10.60-6.50L-16.96-9.43L11.12-9.43ZM80.28 0L68.90 0L68.64-5.27L60.45-5.27L58.44 0L47.19 0L61.62-34.38L77.74-34.38L80.28 0ZM63.90-14.56L68.64-14.56L68.64-24.44L67.73-24.44L63.90-14.56ZM46.34-3.12L45.11-0.26L18.46-3.12L46.34-3.12ZM49.01-9.43L47.78-6.57L21.13-9.43L49.01-9.43ZM51.61-15.67L50.44-12.80L23.79-15.67L51.61-15.67ZM54.28-21.91L53.04-19.05L26.45-21.91L54.28-21.91ZM56.88-28.14L55.70-25.29L29.12-28.14L56.88-28.14ZM59.48-34.38L58.31-31.59L31.79-34.38L59.48-34.38ZM103.22-34.38L117.84-34.38L117.84-34.38Q124.93-34.38 127.99-31.85L127.99-31.85L127.99-31.85Q131.04-29.32 131.04-23.73L131.04-23.73L131.04-23.73Q131.04-21.06 130.32-17.16L130.32-17.16L130.32-17.16Q128.70-7.93 124.70-3.97L124.70-3.97L124.70-3.97Q120.71 0 111.80 0L111.80 0L97.24 0L103.22-34.38ZM116.28-24.89L116.28-24.89L112.52-24.89L109.78-9.29L113.56-9.29L113.56-9.29Q115.44-9.29 116.45-9.78L116.45-9.78L116.45-9.78Q117.46-10.27 117.72-11.77L117.72-11.77L119.60-22.49L119.60-22.49Q119.67-22.75 119.67-23.53L119.67-23.53L119.67-23.53Q119.67-24.89 116.28-24.89ZM95.62-3.12L95.09-0.20L67.53-3.12L95.62-3.12ZM97.83-15.67L97.31-12.74L69.75-15.67L97.83-15.67ZM98.93-21.91L98.41-18.98L70.85-21.91L98.93-21.91ZM100.03-28.14L99.52-25.22L71.95-28.14L100.03-28.14ZM101.08-34.38L100.62-31.46L73.06-34.38L101.08-34.38ZM96.72-9.43L96.20-6.50L68.64-9.43L96.72-9.43ZM158.99 0L147.62 0L153.60-34.38L165.04-34.38L158.99 0ZM145.99-3.12L145.47-0.20L117.91-3.12L145.99-3.12ZM148.20-15.67L147.68-12.74L120.12-15.67L148.20-15.67ZM149.31-21.91L148.79-18.98L121.23-21.91L149.31-21.91ZM150.41-28.14L149.89-25.22L122.33-28.14L150.41-28.14ZM151.45-34.38L151.00-31.46L123.44-34.38L151.45-34.38ZM147.10-9.43L146.58-6.50L119.02-9.43L147.10-9.43ZM203.58-20.21L202.48-13.97L192.79-13.97L192.01-9.55L204.04-9.55L202.35 0L179.40 0L185.38-34.38L208.26-34.38L205.21-24.64L194.61-24.64L193.83-20.21L203.58-20.21ZM177.78-3.12L177.26-0.20L149.70-3.12L177.78-3.12ZM179.99-15.67L179.47-12.74L151.91-15.67L179.99-15.67ZM181.09-21.91L180.57-18.98L153.01-21.91L181.09-21.91ZM182.20-28.14L181.68-25.22L154.12-28.14L182.20-28.14ZM183.24-34.38L182.78-31.46L155.22-34.38L183.24-34.38ZM178.88-9.43L178.36-6.50L150.80-9.43L178.88-9.43ZM244.86-9.55L243.17 0L222.04 0L228.02-34.38L239.46-34.38L235.11-9.55L244.86-9.55ZM220.42-3.12L219.90-0.20L192.34-3.12L220.42-3.12ZM222.63-15.67L222.11-12.74L194.55-15.67L222.63-15.67ZM223.73-21.91L223.21-18.98L195.65-21.91L223.73-21.91ZM224.84-28.14L224.32-25.22L196.76-28.14L224.84-28.14ZM225.88-34.38L225.42-31.46L197.86-34.38L225.88-34.38ZM221.52-9.43L221.00-6.50L193.44-9.43L221.52-9.43Z" fill="#ff9720"></path></g></g><style>text {
  font-size: 64px;
  font-family: Arial Black;
  dominant-baseline: central;
  text-anchor: middle;
}</style></svg>